# xmcd
#
# Track frame offsets: 
#        150
#        12576
#        22997
#        34460
#        45828
#        57897
#        68790
#        80799
#        90971
#        108288
#        120786
#        132447
#        151692
#        165966
#        176019
#        192351
#        203763
#        219576
#        236457
#        252084
#        268305
#        282186
#        298990
#        308373
#
# Disc length: 4320 seconds
#
# Revision: 1
# Processed by: cddbd v1.5.2PL0 Copyright (c) Steve Scherf et al.
# Submitted via: ExactAudioCopyFreeDBPlugin 1.0
#
DISCID=4210de18
DTITLE=Various Artist - Come Together:  Black America Sings Lennon and 
DTITLE=McCartney
DYEAR=2011
DGENRE=Rhythm and Blues
TTITLE0=Chubby Checker - Back in the USSR
TTITLE1=Maxine Brown - We Can Work it Out
TTITLE2=Fats Domino - Everybody's Got Something to Hide
TTITLE3=Wee Willie Walker - Ticket to Ride
TTITLE4=Roy Redmond - Good Day Sunshine
TTITLE5=Mary Wells - Please Please Me
TTITLE6=Gene Chandler - Eleanor Rigby
TTITLE7=The Vibrations - And I Love Her
TTITLE8=The Chairmen of the Board - Come Together
TTITLE9=Billy Preston - Blackbird
TTITLE10=R.B. Greaves - Paperback Writer
TTITLE11=The Moments - Rocky Racoon
TTITLE12=Black Heat - Drive My Car
TTITLE13=Junior Parker - Lady Madonna
TTITLE14=David Porter - Help
TTITLE15=Linda Jones - Yesterday
TTITLE16=Otis Redding - Day Tripper
TTITLE17=Lowell Fulson - Why Don't We Do it in the Road
TTITLE18=Little Richard - I Saw Her Standing There
TTITLE19=Donald Height - Don't Let Me Down
TTITLE20=The Main Ingredient - Get Back
TTITLE21=The New Birth - The Long and Winding Road
TTITLE22=Al Green - I Want to Hold Your Hand
TTITLE23=Aretha Franklin - Let it Be
EXTD=
EXTT0=
EXTT1=
EXTT2=
EXTT3=
EXTT4=
EXTT5=
EXTT6=
EXTT7=
EXTT8=
EXTT9=
EXTT10=
EXTT11=
EXTT12=
EXTT13=
EXTT14=
EXTT15=
EXTT16=
EXTT17=
EXTT18=
EXTT19=
EXTT20=
EXTT21=
EXTT22=
EXTT23=
PLAYORDER=
